<?xml version="1.0" encoding="utf-8"?>
<svg version="1.1" id="Layer_1" xmlns="http://www.w3.org/2000/svg" xmlns:xlink="http://www.w3.org/1999/xlink" x="0px" y="0px"
	 viewBox="0 0 933.7 234.1" style="enable-background:new 0 0 933.7 234.1;" xml:space="preserve">
<path fill="#FFFFFF" class="st0" d="M806,141.3v30.4h-8.6c-24.2,0-43.8-19.6-43.8-43.8V83.3h0V4.3h29.7l0,120.9c0,9.8,8.9,15.7,18.8,16.1
	C804.5,141.5,806,141.3,806,141.3 M289.6,34.2h-2.8V4.3h29.9v2.8C316.7,22.1,304.6,34.2,289.6,34.2 M927.3,54.3l-71.8,173.2l-33,0
	l26.5-59.3L799.6,54.3h33.3l32,79.6l29.6-79.6H927.3z M706,105.6h-57c0.6-9.6,3.6-16.9,9.1-21.8c5.5-4.9,12.3-7.4,20.3-7.4
	c7.9,0,14.6,2.5,20,7.4C703.9,88.7,706.5,96,706,105.6 M708.9,60c-8.7-4.8-18.8-7.2-30.4-7.2c-11.4,0-21.6,2.4-30.5,7.2
	c-8.9,4.8-15.8,11.8-20.8,20.9c-4.9,9.1-7.4,19.8-7.4,32.1c0,12.3,2.5,22.9,7.4,32c4.9,9,11.9,16,20.8,20.9s19.1,7.3,30.5,7.3
	c9.7,0,18.6-1.8,26.6-5.5c8-3.7,14.5-8.8,19.6-15.3c4.5-5.7,7.6-12.1,9.3-19.1h-31.7c-1.5,4.4-4.2,8-7.9,10.8
	c-4.6,3.4-10.3,5.1-17.3,5.1c-7.8,0-14.3-2.5-19.5-7.4s-8-12.6-8.5-23.1h86c0.7-3.8,1.1-7.2,1.1-10.2c0-10.7-2.4-20.3-7.1-28.7
	C724.3,71.4,717.6,64.8,708.9,60 M562.6,137.7c-5.9,6.1-13.3,9.2-22.4,9.2c-9.3,0-16.8-3-22.4-9c-5.6-6-8.5-14.3-8.5-24.9
	c0-10.6,2.8-18.9,8.5-25c5.6-6.1,13.1-9.1,22.4-9.1c9,0,16.5,3.1,22.4,9.2c5.9,6.1,8.8,14.4,8.8,24.9
	C571.4,123.3,568.5,131.5,562.6,137.7 M571.4,78.7c-3-7.9-8-14.2-15-18.8c-7.1-4.7-15.5-7-25.4-7c-9.9,0-18.8,2.4-26.7,7.2
	c-7.9,4.8-14.1,11.8-18.5,20.9c-4.4,9.1-6.7,19.8-6.7,32.1c0,12.3,2.2,23,6.7,32.1c4.5,9.1,10.6,16.1,18.5,20.9
	c7.9,4.8,16.8,7.2,26.7,7.2c9.9,0,18.3-2.4,25.4-7.1c7.1-4.7,12.1-11,15-19v25c0,10.5-2.7,18.3-8.1,23.4c-5.4,5.1-12.4,7.7-21.2,7.7
	c-7.6,0-13.9-1.7-18.7-5c-4.9-3.3-8.2-7.9-9.8-13.9h-29.4c2.3,13.8,8.6,24.8,19.1,32.8c10.4,8.1,24.1,12.1,41.1,12.1
	c12.1,0,22.5-2.5,31-7.4c8.5-4.9,15-11.8,19.3-20.4c4.3-8.7,6.5-18.5,6.5-29.3V54.3h-29.6V78.7z M420.2,137.7
	c-5.9,6.1-13.3,9.2-22.3,9.2c-9.3,0-16.8-3-22.4-9c-5.6-6-8.5-14.3-8.5-24.9c0-10.6,2.8-18.9,8.5-25c5.6-6.1,13.1-9.1,22.4-9.1
	c9,0,16.5,3.1,22.3,9.2c5.9,6.1,8.8,14.4,8.8,24.9C429,123.3,426.1,131.5,420.2,137.7 M429,78.7c-3.1-7.9-8.1-14.2-15.1-18.8
	c-7-4.7-15.4-7-25.3-7c-9.9,0-18.8,2.4-26.7,7.2c-7.9,4.8-14.1,11.8-18.5,20.9c-4.4,9.1-6.7,19.8-6.7,32.1c0,12.3,2.2,23,6.7,32.1
	c4.5,9.1,10.6,16.1,18.5,20.9c7.9,4.8,16.8,7.2,26.7,7.2c9.9,0,18.3-2.4,25.3-7.1c7-4.7,12-11,15.1-19v24.6h29.7V4.3H429V78.7z
	 M286.8,54.3h29.9v117.3h-29.9V54.3z M128.7,138.6c-4.7,3.9-11.5,5.8-20.4,5.8H76.6V101c7.1-0.4,14.2-0.6,21.3-0.6
	c8.6,0,17.1,0.3,25.5,0.9c1.9,0.9,3.7,1.9,5.2,3.2c4.8,4,7.2,9.8,7.2,17.2C135.8,129.1,133.5,134.7,128.7,138.6 M76.6,31.1h29.6
	c8.9,0,15.4,1.9,19.7,5.7c4.3,3.8,6.4,9.2,6.4,16.1c0,7-2.2,12.3-6.5,16c-2.1,1.8-4.6,3.1-7.6,4c-6.7-0.3-13.5-0.5-20.3-0.5
	c-7.1,0-14.2,0.2-21.3,0.6V31.1z M228.2,78.5V54.3h-29.9v31c-14.5-3.8-29.2-6.8-44.2-8.9c1.4-1.2,2.7-2.6,3.9-4.1
	c5.4-6.6,8.2-15.2,8.2-25.6c0-13.4-4.5-23.9-13.6-31.3c-9.1-7.4-22.1-11.1-39-11.1H43.2v71.9c-13.6,1.9-27,4.5-40.2,7.7v29
	c13.2-3.6,26.6-6.4,40.2-8.5v67.2H115c17.9,0,31.5-4.1,40.9-12.2c9.4-8.1,14.1-19.2,14.1-33.3c0-7.1-1.5-13.6-4.6-19.5
	c11.1,2.1,22.1,4.7,32.9,7.8v57.1h29.9v-54.9c0-20.3,10.9-30.5,32.8-30.5h8.7v-32c-8.9,0-16.9,2.2-24.1,6.5
	C238.3,65.1,232.5,71,228.2,78.5"/>
</svg>